<?xml version="1.0" encoding="UTF-8"?>
<svg id="b" data-name="Layer 2" xmlns="http://www.w3.org/2000/svg" xmlns:xlink="http://www.w3.org/1999/xlink" viewBox="0 0 500 500">
  <defs>
    <style>
      .f {
        fill: url(#e);
      }

      .g {
        fill: url(#d);
      }

      .h {
        fill: #f15a29;
      }

      .i {
        fill: #00a79d;
      }

      .j {
        fill: #faaf3b;
      }

      .k {
        fill: #231f20;
      }

      .l {
        fill: #825ef6;
      }
    </style>
    <linearGradient id="d" data-name="Degradado sin nombre 6" x1="165.42" y1="322.92" x2="126.75" y2="372.65" gradientUnits="userSpaceOnUse">
      <stop offset="0" stop-color="#4223ed"/>
      <stop offset=".99" stop-color="#825ef6"/>
    </linearGradient>
    <linearGradient id="e" x1="328.76" y1="257.01" x2="387.18" y2="198.59" gradientUnits="userSpaceOnUse">
      <stop offset="0" stop-color="#231f20" stop-opacity=".7"/>
      <stop offset=".06" stop-color="#472921" stop-opacity=".75"/>
      <stop offset=".13" stop-color="#6f3423" stop-opacity=".81"/>
      <stop offset=".2" stop-color="#923e24" stop-opacity=".86"/>
      <stop offset=".29" stop-color="#af4726" stop-opacity=".9"/>
      <stop offset=".38" stop-color="#c74e27" stop-opacity=".94"/>
      <stop offset=".48" stop-color="#da5328" stop-opacity=".97"/>
      <stop offset=".59" stop-color="#e75728" stop-opacity=".99"/>
      <stop offset=".73" stop-color="#ee5928" stop-opacity="1"/>
      <stop offset="1" stop-color="#f15a29"/>
    </linearGradient>
  </defs>
  <g id="c" data-name="logo">
    <circle class="k" cx="250" cy="250" r="250"/>
    <g>
      <path class="i" d="M246.58,116.81c13.64,0,24.7,11.06,24.7,24.7s-11.06,24.7-24.7,24.7-24.7-11.06-24.7-24.7,11.06-24.7,24.7-24.7h0ZM246.58,93.56c-26.45,0-47.96,21.51-47.96,47.96s21.51,47.96,47.96,47.96,47.96-21.51,47.96-47.96-21.51-47.96-47.96-47.96h0Z"/>
      <path class="l" d="M92.3,141.57c-.33-9.66,5.04-19.18,14.75-23.49,10.99-4.88,24.24-.86,30.73,9.27,7.65,11.95,3.72,27.73-8.43,34.74-6.39,3.69-13.75,4.2-20.24,2.01-4.46-1.5-9.37-.23-12.34,3.42-.26.32-.51.63-.77.95-4.75,5.86-2.4,14.74,4.69,17.3,14.49,5.24,31.38,3.51,45.07-6.67,17.71-13.17,24.1-37.29,15.25-57.51-11.66-26.6-43.52-36.54-67.98-22.42-15.88,9.17-24.54,26.12-23.93,43.29.3,8.52,9.75,13.55,17.17,9.35.07-.04.15-.08.22-.12,3.64-2.06,5.98-5.93,5.83-10.11Z"/>
      <path class="l" d="M214.56,263.75l-47.39-47.4c-10.55-10.55-24.58-16.35-39.48-16.35s-28.93,5.8-39.48,16.35l-47.4,47.4c-21.76,21.76-21.76,57.19,0,78.95l28.65,28.63,18.76,18.76c10.55,10.55,24.56,16.35,39.48,16.35.76,0,1.5-.02,2.25-.05,14.07-.55,27.21-6.28,37.23-16.3l47.39-47.38c1.82-1.8,3.47-3.72,4.97-5.72,16.63-21.85,14.97-53.28-4.97-73.24ZM183.24,311.38l-47.39,47.38c-.57.57-1.19,1.06-1.84,1.49-.23.16-.46.28-.69.41-.12.09-.27.16-.39.21-.21.12-.42.21-.64.3-.18.09-.35.16-.55.23-.07.04-.16.05-.23.09,0,0-.07.02-.18.05-.05.02-.11.04-.18.05-.18.07-.37.12-.55.16-.07.02-.16.04-.25.05-.12.04-.27.05-.41.09-.32.09-.64.14-.96.16-.18.02-.35.04-.53.05-.27.02-.51.04-.78.04h-.04c-1.54,0-3.1-.32-4.53-.96-1.31-.55-2.53-1.36-3.59-2.42l-26.47-26.45-20.93-20.93c-4.49-4.51-4.49-11.82,0-16.31l47.4-47.4c2.25-2.25,5.2-3.38,8.16-3.38s5.89,1.13,8.16,3.38l47.39,47.4c4.05,4.03,4.46,10.33,1.2,14.85-.34.51-.74,1.01-1.2,1.47Z"/>
      <path class="g" d="M219.53,336.98c-1.5,2-3.15,3.91-4.97,5.72l-47.39,47.38c-10.01,10.01-23.16,15.75-37.23,16.3-.74.04-1.49.05-2.25.05-14.92,0-28.93-5.8-39.48-16.35l-18.76-18.76c6.25-11.89,14.19-25.05,23.6-39.02l26.47,26.45c1.06,1.06,2.28,1.88,3.59,2.42,1.43.64,2.99.96,4.53.96h.04c.27,0,.51-.02.78-.04.18-.02.35-.04.53-.05.34-.05.65-.11.96-.16.14-.04.28-.05.41-.09.09-.02.18-.04.25-.05.18-.04.37-.09.55-.16.07-.02.12-.04.18-.05.11-.04.18-.05.18-.05.07-.04.16-.05.23-.09.19-.07.37-.14.55-.23.21-.09.42-.18.64-.3.12-.05.27-.12.39-.21.23-.12.46-.25.69-.41.65-.42,1.27-.92,1.84-1.49l47.39-47.38c.46-.46.87-.96,1.2-1.47l9.47,1.47,25.62,25.6Z"/>
      <path class="j" d="M336.34,263.74l-47.4-47.38c-10.55-10.55-24.56-16.36-39.47-16.36s-28.93,5.81-39.47,16.36l-21.4,21.42,25.96,25.96c1.82,1.8,3.47,3.71,4.98,5.71l21.78-21.77c2.25-2.25,5.2-3.38,8.15-3.38s5.91,1.13,8.17,3.38l47.38,47.38c4.51,4.51,4.51,11.81,0,16.32l-47.38,47.38c-2.25,2.25-5.22,3.38-8.17,3.38s-5.9-1.13-8.15-3.38l-21.77-21.77s-.02-.02-.02-.02l-25.62-25.6c-2.32-2.34-3.45-5.43-3.35-8.48-2.05-2.17-4.13-4.34-6.16-6.45-.35-.49-.75-.95-1.18-1.39l-5.86-5.84c-.21-.21-.42-.43-.62-.64-10.7-10.89-19.11-19.13-19.11-19.13h-.02c-7.37,9.66-11.36,21.42-11.36,33.77s3.99,24.11,11.38,33.77c1.51,1.99,3.17,3.9,4.98,5.71l35.43,35.43,11.95,11.97c10.55,10.55,24.56,16.36,39.47,16.36s28.93-5.81,39.47-16.36l47.4-47.4c21.77-21.77,21.77-57.18,0-78.95Z"/>
      <path class="h" d="M459.18,263.73l-47.39-47.37c-5.64-5.64-12.28-9.94-19.53-12.69-6.28-2.42-13.02-3.68-19.94-3.68-14.92,0-28.93,5.82-39.48,16.37l-21.94,21.92,25.44,25.44c2,2,3.82,4.12,5.45,6.32l22.37-22.37c2.25-2.26,5.2-3.38,8.16-3.38s5.89,1.11,8.16,3.38l47.39,47.38c4.49,4.51,4.49,11.8,0,16.31l-47.39,47.38c-2.26,2.25-5.22,3.38-8.16,3.38s-5.91-1.13-8.16-3.38l-20.08-20.07s-.02-.02-.02-.04l-2.28-2.26-25.02-25.02c-2.05-2.07-3.18-4.72-3.34-7.4-2.37-2.49-4.76-4.95-7.1-7.34-.35-.55-.8-1.08-1.29-1.57l-11.94-11.93-2.23-2.25-2.09-2.09c-3.96-4-6.92-6.94-8.14-8.12l-.62-.64h-.02c-14.51,19.64-14.49,46.71.02,66.35,1.63,2.19,3.43,4.3,5.43,6.28l25.46,25.46,10.65,10.65,11.29,11.29c10.55,10.55,24.56,16.37,39.48,16.37s28.93-5.82,39.48-16.37l47.39-47.4c21.76-21.76,21.76-57.17,0-78.95Z"/>
      <path class="f" d="M372.32,244.3c-2.95,0-5.91,1.11-8.16,3.38l-22.37,22.37c-1.63-2.19-3.45-4.32-5.45-6.32l-25.44-25.44,21.94-21.92c10.55-10.55,24.56-16.37,39.48-16.37,6.92,0,13.66,1.26,19.94,3.68,21.64,21.22-19.94,40.63-19.94,40.63Z"/>
      <path class="h" d="M398.03,132.66c2.82,9.25.1,19.84-8.16,26.51-9.36,7.56-23.19,7.11-32.08-1-10.48-9.56-10.77-25.82-.84-35.74,5.22-5.22,12.2-7.61,19.04-7.18,4.69.3,9.12-2.2,11.03-6.5.17-.37.33-.74.5-1.12,3.07-6.88-1.5-14.86-9.01-15.5-15.35-1.31-31.22,4.73-41.81,18.11-13.7,17.3-13.63,42.26.16,59.5,18.14,22.68,51.49,24.04,71.47,4.06,12.97-12.97,16.94-31.58,11.91-48.01-2.5-8.15-12.92-10.57-19-4.59-.06.06-.12.12-.18.18-2.98,2.93-4.24,7.28-3.02,11.27Z"/>
    </g>
  </g>
</svg>