<?xml version="1.0" encoding="UTF-8"?>
<svg id="b" data-name="Layer 2" xmlns="http://www.w3.org/2000/svg" xmlns:xlink="http://www.w3.org/1999/xlink" viewBox="0 0 1606.58 316">
  <defs>
    <style>
      .f {
        fill: url(#e);
      }

      .g {
        fill: url(#d);
      }

      .h {
        fill: #f15a29;
      }

      .i {
        fill: #00a79d;
      }

      .j {
        fill: #faaf3b;
      }

      .k {
        fill: #825ef6;
      }
    </style>
    <linearGradient id="d" data-name="Degradado sin nombre 6" x1="141.65" y1="232.04" x2="102.78" y2="282.02" gradientUnits="userSpaceOnUse">
      <stop offset="0" stop-color="#4223ed"/>
      <stop offset=".99" stop-color="#825ef6"/>
    </linearGradient>
    <linearGradient id="e" x1="305.83" y1="165.79" x2="364.55" y2="107.07" gradientUnits="userSpaceOnUse">
      <stop offset="0" stop-color="#231f20" stop-opacity=".7"/>
      <stop offset=".06" stop-color="#472921" stop-opacity=".75"/>
      <stop offset=".13" stop-color="#6f3423" stop-opacity=".81"/>
      <stop offset=".2" stop-color="#923e24" stop-opacity=".86"/>
      <stop offset=".29" stop-color="#af4726" stop-opacity=".9"/>
      <stop offset=".38" stop-color="#c74e27" stop-opacity=".94"/>
      <stop offset=".48" stop-color="#da5328" stop-opacity=".97"/>
      <stop offset=".59" stop-color="#e75728" stop-opacity=".99"/>
      <stop offset=".73" stop-color="#ee5928" stop-opacity="1"/>
      <stop offset="1" stop-color="#f15a29"/>
    </linearGradient>
  </defs>
  <g id="c" data-name="logo">
    <g>
      <path class="i" d="M522.3,90.61c-6.96-2.37-13.28-4.78-18.98-7.24-5.69-2.45-10.6-5.42-14.71-8.9-4.11-3.48-7.32-7.63-9.61-12.45-2.29-4.82-3.44-10.71-3.44-17.67,0-13.44,5.18-24.2,15.54-32.26,10.36-8.06,24.87-12.1,43.53-12.1,6.8,0,13.12.47,18.98,1.42,5.85.95,10.87,2.41,15.06,4.39,4.19,1.98,7.47,4.51,9.84,7.59,2.37,3.08,3.56,6.68,3.56,10.79s-.95,7.63-2.85,10.56c-1.9,2.93-4.19,5.42-6.88,7.47-3.48-2.21-8.15-4.15-14-5.81-5.85-1.66-12.26-2.49-19.21-2.49s-12.34.99-15.66,2.97c-3.32,1.98-4.98,4.47-4.98,7.47,0,2.37,1.03,4.31,3.08,5.81,2.05,1.5,5.14,2.89,9.25,4.15l12.57,4.03c14.86,4.74,26.29,10.79,34.28,18.15,7.98,7.35,11.98,17.36,11.98,30.01,0,13.44-5.3,24.31-15.89,32.62-10.6,8.3-26.18,12.45-46.73,12.45-7.27,0-14.04-.59-20.28-1.78-6.25-1.19-11.71-2.92-16.37-5.22-4.67-2.29-8.3-5.14-10.91-8.54-2.61-3.4-3.91-7.31-3.91-11.74s1.34-8.5,4.03-11.74c2.69-3.24,5.61-5.73,8.78-7.47,4.43,3.48,9.84,6.49,16.25,9.01,6.41,2.53,13.4,3.8,20.99,3.8s13.2-1.19,16.37-3.56c3.16-2.37,4.74-5.14,4.74-8.3s-1.27-5.57-3.8-7.24c-2.53-1.66-6.09-3.28-10.67-4.86l-9.96-3.32Z"/>
      <path class="i" d="M602.48,37.24c-1.11-1.74-2.13-4.11-3.08-7.12-.95-3-1.42-6.17-1.42-9.49,0-6.17,1.38-10.59,4.15-13.28,2.77-2.69,6.36-4.03,10.79-4.03h103.42c1.1,1.74,2.13,4.11,3.08,7.12.95,3.01,1.42,6.17,1.42,9.49,0,6.17-1.39,10.6-4.15,13.28-2.77,2.69-6.37,4.03-10.79,4.03h-26.33v109.59c-1.74.47-4.47.95-8.18,1.42-3.72.48-7.39.71-11.03.71s-6.84-.28-9.61-.83c-2.77-.55-5.1-1.54-7-2.97-1.9-1.42-3.32-3.4-4.27-5.93-.95-2.53-1.42-5.85-1.42-9.96V37.24h-35.58Z"/>
      <path class="i" d="M782.29,101.29v45.54c-1.74.47-4.47.95-8.18,1.42-3.72.48-7.39.71-11.03.71s-6.84-.28-9.61-.83c-2.77-.55-5.06-1.54-6.88-2.97-1.82-1.42-3.2-3.4-4.15-5.93-.95-2.53-1.42-5.85-1.42-9.96V17.55c0-3.32.91-5.89,2.73-7.71,1.82-1.82,4.31-3.28,7.47-4.39,5.37-1.9,11.62-3.28,18.74-4.15,7.12-.87,14.71-1.3,22.77-1.3,21.82,0,38.27,4.59,49.34,13.76,11.07,9.17,16.6,21.59,16.6,37.24,0,9.81-2.53,18.19-7.59,25.14-5.06,6.96-11.07,12.33-18.03,16.13,5.69,7.75,11.3,15.03,16.84,21.82,5.53,6.8,9.88,12.97,13.05,18.5-1.58,5.54-4.47,9.77-8.66,12.69-4.19,2.92-8.9,4.39-14.11,4.39-3.48,0-6.49-.4-9.01-1.19-2.53-.79-4.74-1.9-6.64-3.32-1.9-1.42-3.64-3.16-5.22-5.22-1.58-2.05-3.08-4.27-4.51-6.64l-19.93-32.02h-12.57ZM797.23,69.74c6.01,0,10.75-1.54,14.23-4.63,3.48-3.08,5.22-7.63,5.22-13.64s-1.94-10.56-5.81-13.64c-3.88-3.08-10-4.63-18.38-4.63-2.37,0-4.27.08-5.69.24-1.42.16-3.01.4-4.74.71v35.58h15.18Z"/>
      <path class="i" d="M917.97,8.3c2.69-1.58,6.76-3.08,12.22-4.51,5.46-1.42,10.95-2.14,16.49-2.14,7.91,0,14.9,1.15,20.99,3.44,6.09,2.29,10,5.89,11.74,10.79,2.85,8.22,5.93,17.79,9.25,28.7,3.32,10.91,6.64,22.18,9.96,33.8,3.32,11.62,6.56,23.09,9.73,34.4,3.16,11.31,5.93,21.31,8.3,30.01-1.9,2.22-4.74,4-8.54,5.34s-8.3,2.02-13.52,2.02c-3.8,0-7-.32-9.61-.95-2.61-.63-4.74-1.58-6.41-2.85-1.66-1.26-3.01-2.92-4.03-4.98-1.03-2.05-1.94-4.43-2.73-7.12l-4.27-16.37h-42.94c-1.27,4.74-2.53,9.65-3.8,14.71-1.27,5.06-2.53,9.96-3.8,14.71-2.22.79-4.55,1.46-7,2.02-2.45.55-5.42.83-8.9.83-8.06,0-14.04-1.39-17.91-4.15-3.88-2.77-5.81-6.6-5.81-11.5,0-2.21.31-4.43.95-6.64.63-2.21,1.34-4.82,2.14-7.83,1.1-4.27,2.65-9.57,4.63-15.89,1.98-6.32,4.15-13.17,6.52-20.52,2.37-7.35,4.9-14.9,7.59-22.65,2.69-7.75,5.22-15.06,7.59-21.94,2.37-6.88,4.54-13.01,6.52-18.38,1.98-5.37,3.52-9.49,4.63-12.34ZM946.43,38.9c-2.22,6.64-4.71,14.04-7.47,22.18-2.77,8.15-5.26,16.41-7.47,24.79h29.41c-2.22-8.54-4.47-16.88-6.76-25.03-2.29-8.14-4.39-15.46-6.29-21.94h-1.42Z"/>
      <path class="i" d="M1166.33,142.8c-2.22,2.22-5.42,3.91-9.61,5.1-4.19,1.19-9.21,1.78-15.06,1.78s-11.39-.87-16.6-2.61c-5.22-1.74-9.49-5.93-12.81-12.57l-23.48-47.92c-2.37-4.9-4.51-9.53-6.4-13.88-1.9-4.35-3.95-9.37-6.17-15.06l-1.42.24c.63,8.54.99,17.24,1.07,26.09.08,8.86.12,17.55.12,26.09v36.77c-1.74.47-4.39.95-7.95,1.42-3.56.48-7.08.71-10.56.71s-6.56-.24-9.25-.71c-2.69-.47-4.9-1.42-6.64-2.85-1.74-1.42-3.08-3.36-4.03-5.81-.95-2.45-1.42-5.65-1.42-9.61V11.39c2.21-3.16,5.61-5.53,10.2-7.12,4.58-1.58,9.49-2.37,14.71-2.37,5.85,0,11.42.91,16.72,2.73,5.3,1.82,9.53,5.97,12.69,12.45l23.72,47.92c2.37,4.9,4.51,9.53,6.41,13.88,1.9,4.35,3.95,9.37,6.17,15.06l1.19-.24c-.63-8.54-1.03-17.08-1.19-25.62-.16-8.54-.24-17.08-.24-25.62V4.03c1.74-.47,4.39-.95,7.95-1.42,3.56-.47,7.08-.71,10.56-.71,6.96,0,12.25,1.23,15.89,3.68,3.64,2.45,5.46,7.55,5.46,15.3v121.93Z"/>
      <path class="i" d="M1327.39,124.3c0,4.9-.87,8.54-2.61,10.91-1.74,2.37-4.51,4.67-8.3,6.88-2.22,1.27-4.98,2.49-8.3,3.68s-6.96,2.21-10.91,3.08c-3.95.87-8.11,1.54-12.45,2.02-4.35.47-8.66.71-12.93.71-11.39,0-22.06-1.54-32.02-4.63-9.96-3.08-18.62-7.75-25.97-14-7.35-6.25-13.17-14.03-17.43-23.36-4.27-9.33-6.41-20.16-6.41-32.5,0-12.96,2.33-24.27,7-33.92,4.66-9.64,10.83-17.67,18.5-24.08,7.67-6.4,16.45-11.19,26.33-14.35,9.88-3.16,20.04-4.74,30.48-4.74,15.02,0,26.92,2.41,35.7,7.23,8.78,4.83,13.17,11.11,13.17,18.86,0,4.11-1.03,7.67-3.08,10.67-2.06,3.01-4.43,5.38-7.12,7.12-3.95-2.37-8.89-4.7-14.82-7-5.93-2.29-12.61-3.44-20.04-3.44-13.28,0-23.84,3.8-31.67,11.39-7.83,7.59-11.74,18.11-11.74,31.55,0,7.28,1.07,13.56,3.2,18.86,2.13,5.3,5.02,9.65,8.66,13.05,3.64,3.4,7.83,5.93,12.57,7.59,4.74,1.66,9.8,2.49,15.18,2.49,3.48,0,6.56-.32,9.25-.95,2.69-.63,4.74-1.34,6.17-2.13v-22.3h-25.38c-.95-1.74-1.86-4.03-2.73-6.88-.87-2.85-1.3-5.85-1.3-9.01,0-5.69,1.3-9.8,3.91-12.33,2.61-2.53,5.97-3.8,10.08-3.8h40.09c4.74,0,8.42,1.3,11.03,3.91,2.61,2.61,3.91,6.29,3.91,11.03v48.39Z"/>
      <path class="i" d="M1354.67,26.09c0-6.8,1.98-12.18,5.93-16.13,3.95-3.95,9.33-5.93,16.13-5.93h78.28c1.1,1.74,2.09,4.03,2.97,6.88.87,2.85,1.3,5.85,1.3,9.01,0,6.01-1.3,10.28-3.91,12.81-2.61,2.53-6.05,3.8-10.32,3.8h-50.05v22.06h53.37c1.1,1.74,2.09,4,2.96,6.76.87,2.77,1.3,5.73,1.3,8.9,0,6.01-1.27,10.28-3.8,12.81s-5.93,3.8-10.2,3.8h-43.65v24.91h60.96c1.1,1.74,2.09,4.03,2.96,6.88.87,2.85,1.3,5.85,1.3,9.01,0,6.01-1.3,10.32-3.91,12.93-2.61,2.61-6.05,3.91-10.32,3.91h-69.26c-6.8,0-12.18-1.98-16.13-5.93-3.95-3.95-5.93-9.33-5.93-16.13V26.09Z"/>
      <path class="i" d="M1525.93,101.29v45.54c-1.74.47-4.47.95-8.18,1.42-3.72.48-7.39.71-11.03.71s-6.84-.28-9.61-.83c-2.77-.55-5.06-1.54-6.88-2.97-1.82-1.42-3.2-3.4-4.15-5.93-.95-2.53-1.42-5.85-1.42-9.96V17.55c0-3.32.91-5.89,2.73-7.71,1.82-1.82,4.31-3.28,7.47-4.39,5.37-1.9,11.62-3.28,18.74-4.15,7.12-.87,14.71-1.3,22.77-1.3,21.82,0,38.27,4.59,49.34,13.76,11.07,9.17,16.6,21.59,16.6,37.24,0,9.81-2.53,18.19-7.59,25.14-5.06,6.96-11.07,12.33-18.03,16.13,5.69,7.75,11.3,15.03,16.84,21.82,5.53,6.8,9.88,12.97,13.05,18.5-1.58,5.54-4.47,9.77-8.66,12.69-4.19,2.92-8.9,4.39-14.11,4.39-3.48,0-6.49-.4-9.01-1.19-2.53-.79-4.74-1.9-6.64-3.32-1.9-1.42-3.64-3.16-5.22-5.22-1.58-2.05-3.08-4.27-4.51-6.64l-19.93-32.02h-12.57ZM1540.88,69.74c6.01,0,10.75-1.54,14.23-4.63,3.48-3.08,5.22-7.63,5.22-13.64s-1.94-10.56-5.81-13.64c-3.88-3.08-10-4.63-18.38-4.63-2.37,0-4.27.08-5.69.24-1.42.16-3.01.4-4.74.71v35.58h15.18Z"/>
      <path class="i" d="M580.89,276.86c-2.06,1.74-4.71,3.13-7.95,4.15-3.24,1.03-7,1.54-11.27,1.54-5.69,0-10.4-.71-14.11-2.13-3.72-1.42-6.13-3.87-7.24-7.35-4.43-13.91-8.06-25.18-10.91-33.8-2.85-8.62-5.06-16.17-6.64-22.65h-1.19c-.47,9.33-.83,17.83-1.07,25.5-.24,7.67-.4,15.14-.47,22.42-.08,7.27-.24,14.63-.48,22.06-.24,7.44-.59,15.66-1.07,24.67-2.06.79-4.74,1.46-8.07,2.02-3.32.55-6.64.83-9.96.83-6.96,0-12.38-1.11-16.25-3.32-3.88-2.21-5.81-6.24-5.81-12.1l6.88-120.98c1.26-2.05,4.03-4.27,8.3-6.64,4.27-2.37,10.28-3.56,18.03-3.56,8.38,0,14.94,1.3,19.69,3.91,4.74,2.61,8.22,6.84,10.44,12.69,1.42,3.8,2.97,8.15,4.63,13.05,1.66,4.9,3.32,9.96,4.98,15.18s3.28,10.4,4.86,15.54c1.58,5.14,3,9.77,4.27,13.88h1.19c3.8-13.28,7.59-26.13,11.39-38.55,3.8-12.41,7.27-22.81,10.44-31.19,2.37-1.26,5.42-2.33,9.13-3.2,3.71-.87,7.86-1.3,12.45-1.3,7.75,0,14.07,1.15,18.98,3.44,4.9,2.29,7.75,5.57,8.54,9.84.63,3.17,1.3,8.03,2.02,14.59.71,6.56,1.46,13.96,2.25,22.18.79,8.22,1.58,16.92,2.37,26.09.79,9.17,1.54,17.99,2.25,26.45.71,8.46,1.3,16.21,1.78,23.25.47,7.04.79,12.45.95,16.25-2.69,1.58-5.5,2.73-8.42,3.44-2.93.71-6.68,1.07-11.27,1.07-6.01,0-11.07-1.03-15.18-3.08-4.11-2.05-6.33-6.09-6.64-12.1-.95-17.24-1.54-32.73-1.78-46.49-.24-13.76-.59-25.3-1.07-34.63h-1.19c-1.58,6.17-3.88,13.92-6.88,23.25-3.01,9.33-6.64,21.27-10.91,35.82Z"/>
      <path class="i" d="M712.07,311.25c-1.74.48-4.47.95-8.18,1.42-3.72.48-7.39.71-11.03.71s-6.84-.28-9.61-.83c-2.77-.55-5.1-1.54-7-2.96-1.9-1.42-3.32-3.4-4.27-5.93-.95-2.53-1.42-5.85-1.42-9.96v-125.25c1.74-.31,4.51-.75,8.3-1.3,3.8-.55,7.43-.83,10.91-.83s6.84.28,9.61.83c2.77.56,5.1,1.54,7,2.97s3.32,3.4,4.27,5.93c.95,2.53,1.42,5.85,1.42,9.96v125.25Z"/>
      <path class="i" d="M873.13,307.22c-2.22,2.22-5.42,3.91-9.61,5.1-4.19,1.19-9.21,1.78-15.06,1.78s-11.39-.87-16.6-2.61-9.49-5.93-12.81-12.57l-23.48-47.92c-2.37-4.9-4.51-9.53-6.4-13.88-1.9-4.35-3.95-9.37-6.17-15.06l-1.42.24c.63,8.54.99,17.24,1.07,26.09.08,8.86.12,17.55.12,26.09v36.77c-1.74.48-4.39.95-7.95,1.42-3.56.48-7.08.71-10.56.71s-6.56-.24-9.25-.71c-2.69-.47-4.9-1.42-6.64-2.85-1.74-1.42-3.08-3.36-4.03-5.81-.95-2.45-1.42-5.65-1.42-9.61v-118.61c2.21-3.16,5.61-5.53,10.2-7.12,4.58-1.58,9.49-2.37,14.71-2.37,5.85,0,11.42.91,16.72,2.73,5.3,1.82,9.53,5.97,12.69,12.45l23.72,47.92c2.37,4.9,4.51,9.53,6.41,13.88,1.9,4.35,3.95,9.37,6.17,15.06l1.19-.24c-.63-8.54-1.03-17.08-1.19-25.62-.16-8.54-.24-17.08-.24-25.62v-38.43c1.74-.47,4.39-.95,7.95-1.42s7.08-.71,10.56-.71c6.96,0,12.25,1.23,15.89,3.68,3.64,2.45,5.46,7.55,5.46,15.3v121.93Z"/>
      <path class="i" d="M1034.2,288.72c0,4.9-.87,8.54-2.61,10.91-1.74,2.37-4.51,4.67-8.3,6.88-2.22,1.27-4.98,2.49-8.3,3.68s-6.96,2.21-10.91,3.08c-3.95.87-8.11,1.54-12.45,2.02-4.35.47-8.66.71-12.93.71-11.39,0-22.06-1.54-32.02-4.63-9.96-3.08-18.62-7.75-25.97-14-7.35-6.24-13.17-14.03-17.43-23.36-4.27-9.33-6.41-20.16-6.41-32.5,0-12.97,2.33-24.27,7-33.92,4.66-9.64,10.83-17.67,18.5-24.08,7.67-6.4,16.45-11.19,26.33-14.35,9.88-3.16,20.04-4.74,30.48-4.74,15.02,0,26.92,2.41,35.7,7.24,8.78,4.83,13.17,11.11,13.17,18.86,0,4.11-1.03,7.67-3.08,10.67-2.06,3.01-4.43,5.38-7.12,7.12-3.95-2.37-8.89-4.7-14.82-7-5.93-2.29-12.61-3.44-20.04-3.44-13.28,0-23.84,3.8-31.67,11.39-7.83,7.59-11.74,18.11-11.74,31.55,0,7.28,1.07,13.56,3.2,18.86,2.13,5.3,5.02,9.65,8.66,13.05,3.64,3.4,7.83,5.93,12.57,7.59,4.74,1.66,9.8,2.49,15.18,2.49,3.48,0,6.56-.31,9.25-.95,2.69-.63,4.74-1.34,6.17-2.13v-22.3h-25.38c-.95-1.74-1.86-4.03-2.73-6.88-.87-2.85-1.3-5.85-1.3-9.01,0-5.69,1.3-9.8,3.91-12.34,2.61-2.53,5.97-3.8,10.08-3.8h40.09c4.74,0,8.42,1.3,11.03,3.91,2.61,2.61,3.91,6.29,3.91,11.03v48.39Z"/>
      <path class="i" d="M1083.53,312.91c-6.8,0-12.18-1.98-16.13-5.93-3.95-3.95-5.93-9.33-5.93-16.13v-122.64c1.74-.32,4.51-.75,8.3-1.3,3.8-.55,7.43-.83,10.91-.83s6.84.28,9.61.83c2.77.56,5.1,1.54,7,2.97,1.9,1.42,3.32,3.4,4.27,5.93.95,2.53,1.42,5.85,1.42,9.96v93.7h54.32c1.1,1.74,2.13,4.07,3.08,7,.95,2.93,1.42,5.97,1.42,9.13,0,6.33-1.34,10.79-4.03,13.4-2.69,2.61-6.25,3.91-10.67,3.91h-63.57Z"/>
      <path class="i" d="M1183.16,190.51c0-6.8,1.98-12.18,5.93-16.13,3.95-3.95,9.33-5.93,16.13-5.93h78.28c1.1,1.74,2.09,4.03,2.97,6.88.87,2.85,1.3,5.85,1.3,9.01,0,6.01-1.3,10.28-3.91,12.81-2.61,2.53-6.05,3.8-10.32,3.8h-50.05v22.06h53.37c1.1,1.74,2.09,4,2.96,6.76.87,2.77,1.3,5.73,1.3,8.9,0,6.01-1.27,10.28-3.8,12.81s-5.93,3.8-10.2,3.8h-43.65v24.91h60.96c1.1,1.74,2.09,4.03,2.96,6.88.87,2.85,1.3,5.85,1.3,9.01,0,6.01-1.3,10.32-3.91,12.93-2.61,2.61-6.05,3.91-10.32,3.91h-69.26c-6.8,0-12.18-1.98-16.13-5.93-3.95-3.95-5.93-9.33-5.93-16.13v-100.34Z"/>
    </g>
    <g>
      <path class="i" d="M223.22,24.87c13.71,0,24.83,11.12,24.83,24.83s-11.12,24.83-24.83,24.83-24.83-11.12-24.83-24.83,11.12-24.83,24.83-24.83h0ZM223.22,1.49c-26.58,0-48.21,21.63-48.21,48.21s21.63,48.21,48.21,48.21,48.21-21.63,48.21-48.21S249.8,1.49,223.22,1.49h0Z"/>
      <path class="k" d="M68,51.64c-.33-9.71,5.07-19.28,14.82-23.61,11.05-4.91,24.36-.87,30.89,9.31,7.69,12.01,3.74,27.87-8.48,34.92-6.43,3.71-13.82,4.22-20.35,2.02-4.48-1.51-9.42-.23-12.4,3.44-.26.32-.52.64-.77.95-4.77,5.89-2.41,14.81,4.72,17.39,14.56,5.26,31.54,3.53,45.3-6.71,17.8-13.24,24.23-37.49,15.32-57.8C125.34,4.82,93.31-5.18,68.72,9.02c-15.97,9.22-24.67,26.26-24.05,43.51.3,8.56,9.8,13.62,17.25,9.39.07-.04.15-.08.22-.12,3.65-2.07,6.01-5.96,5.86-10.16Z"/>
      <path class="k" d="M191.04,172.56l-47.63-47.65c-10.6-10.6-24.7-16.43-39.68-16.43s-29.08,5.83-39.68,16.43l-47.65,47.65c-21.88,21.88-21.88,57.48,0,79.36l28.79,28.78,18.85,18.85c10.6,10.6,24.69,16.43,39.68,16.43.76,0,1.51-.02,2.26-.05,14.14-.55,27.35-6.31,37.42-16.38l47.63-47.63c1.83-1.81,3.49-3.73,5-5.74,16.72-21.96,15.05-53.55-5-73.61ZM159.56,220.44l-47.63,47.63c-.57.57-1.19,1.07-1.85,1.49-.23.16-.46.28-.69.41-.12.09-.27.16-.39.21-.21.12-.43.21-.64.3-.18.09-.36.16-.55.23-.07.04-.16.05-.23.09,0,0-.07.02-.18.05-.05.02-.11.04-.18.05-.18.07-.37.12-.55.16-.07.02-.16.04-.25.05-.12.04-.27.05-.41.09-.32.09-.64.14-.96.16-.18.02-.36.04-.53.05-.27.02-.52.04-.78.04h-.04c-1.55,0-3.11-.32-4.55-.96-1.32-.55-2.54-1.37-3.61-2.44l-26.61-26.59-21.04-21.04c-4.52-4.54-4.52-11.88,0-16.4l47.65-47.65c2.26-2.26,5.23-3.4,8.2-3.4s5.92,1.14,8.2,3.4l47.63,47.65c4.07,4.06,4.48,10.39,1.21,14.92-.34.52-.75,1.01-1.21,1.48Z"/>
      <path class="g" d="M196.04,246.17c-1.51,2.01-3.17,3.93-5,5.74l-47.63,47.63c-10.07,10.07-23.28,15.83-37.42,16.38-.75.04-1.49.05-2.26.05-14.99,0-29.08-5.83-39.68-16.43l-18.85-18.85c6.28-11.95,14.26-25.18,23.73-39.22l26.61,26.59c1.07,1.07,2.29,1.89,3.61,2.44,1.44.64,3.01.96,4.55.96h.04c.27,0,.52-.02.78-.04.18-.02.36-.04.53-.05.34-.05.66-.11.96-.16.14-.04.28-.05.41-.09.09-.02.18-.04.25-.05.18-.04.37-.09.55-.16.07-.02.12-.04.18-.05.11-.04.18-.05.18-.05.07-.04.16-.05.23-.09.2-.07.37-.14.55-.23.21-.09.43-.18.64-.3.12-.05.27-.12.39-.21.23-.12.46-.25.69-.41.66-.43,1.28-.92,1.85-1.49l47.63-47.63c.46-.46.87-.96,1.21-1.48l9.51,1.48,25.75,25.73Z"/>
      <path class="j" d="M313.45,172.55l-47.64-47.63c-10.6-10.6-24.69-16.44-39.68-16.44s-29.08,5.84-39.68,16.44l-21.51,21.53,26.1,26.1c1.83,1.81,3.49,3.73,5,5.74l21.9-21.88c2.27-2.27,5.23-3.4,8.19-3.4s5.94,1.13,8.21,3.4l47.63,47.63c4.53,4.53,4.53,11.87,0,16.4l-47.63,47.63c-2.27,2.27-5.25,3.4-8.21,3.4s-5.93-1.13-8.19-3.4l-21.88-21.88s-.02-.02-.02-.02l-25.75-25.73c-2.34-2.35-3.47-5.46-3.36-8.52-2.06-2.18-4.15-4.36-6.19-6.49-.35-.49-.75-.96-1.19-1.39l-5.89-5.87c-.21-.21-.42-.44-.63-.64-10.76-10.95-19.21-19.23-19.21-19.23h-.02c-7.41,9.71-11.42,21.53-11.42,33.94s4.01,24.23,11.44,33.94c1.52,2,3.19,3.92,5,5.74l35.62,35.62,12.01,12.03c10.6,10.6,24.69,16.44,39.68,16.44s29.08-5.84,39.68-16.44l47.64-47.64c21.88-21.88,21.88-57.48,0-79.36Z"/>
      <path class="h" d="M436.92,172.54l-47.63-47.61c-5.67-5.67-12.34-10-19.63-12.75-6.31-2.44-13.09-3.7-20.04-3.7-14.99,0-29.08,5.85-39.68,16.45l-22.05,22.04,25.57,25.57c2.01,2.01,3.84,4.14,5.48,6.35l22.48-22.48c2.26-2.28,5.23-3.4,8.2-3.4s5.92,1.12,8.2,3.4l47.63,47.63c4.52,4.54,4.52,11.86,0,16.4l-47.63,47.63c-2.28,2.26-5.25,3.4-8.2,3.4s-5.94-1.14-8.2-3.4l-20.19-20.17s-.02-.02-.02-.04l-2.29-2.28-25.15-25.15c-2.06-2.08-3.2-4.75-3.36-7.43-2.38-2.51-4.78-4.98-7.13-7.38-.36-.55-.8-1.08-1.3-1.58l-12-11.99-2.24-2.26-2.1-2.1c-3.98-4.02-6.95-6.97-8.18-8.16l-.62-.64h-.02c-14.58,19.74-14.57,46.95.02,66.69,1.64,2.21,3.45,4.32,5.46,6.31l25.59,25.59,10.71,10.71,11.35,11.35c10.6,10.6,24.69,16.45,39.68,16.45s29.08-5.85,39.68-16.45l47.63-47.65c21.88-21.88,21.88-57.46,0-79.36Z"/>
      <path class="f" d="M349.61,153.01c-2.97,0-5.94,1.12-8.2,3.4l-22.48,22.48c-1.64-2.21-3.47-4.34-5.48-6.35l-25.57-25.57,22.05-22.04c10.6-10.6,24.69-16.45,39.68-16.45,6.95,0,13.73,1.26,20.04,3.7,21.75,21.32-20.04,40.83-20.04,40.83Z"/>
      <path class="h" d="M377.02,40.9c2.84,9.3.1,19.94-8.21,26.65-9.4,7.6-23.31,7.14-32.24-1-10.54-9.61-10.82-25.95-.85-35.92,5.25-5.25,12.26-7.65,19.13-7.22,4.72.3,9.16-2.22,11.09-6.53.17-.37.33-.75.5-1.12,3.09-6.92-1.51-14.93-9.06-15.58-15.43-1.32-31.38,4.76-42.02,18.2-13.77,17.39-13.7,42.48.16,59.8,18.24,22.79,51.76,24.16,71.84,4.08,13.04-13.04,17.03-31.75,11.97-48.26-2.51-8.19-12.99-10.62-19.1-4.61-.06.06-.12.12-.18.18-2.99,2.95-4.26,7.31-3.03,11.33Z"/>
    </g>
  </g>
</svg>